<svg xmlns="http://www.w3.org/2000/svg" xmlns:xlink="http://www.w3.org/1999/xlink" version="1.1" id="Layer_1" x="0px" y="0px" viewBox="0 0 358.8 85.8" style="enable-background:new 0 0 358.8 85.8;" xml:space="preserve">
<style type="text/css">
	.st0{fill:#666766;}
	.st1{fill:#CB9866;}
	.st2{fill:#D2E4F4;}
	.st3{fill:#F3C887;}
	.st4{fill:#9DB57F;}
	.st5{fill:#829F60;}
	.st6{fill:#9FBC75;}
	.st7{fill:#86AE4F;}
	.st8{fill:#89AC5F;}
	.st9{fill:#708E48;}
	.st10{fill:#739648;}
	.st11{fill:#485D2A;}
	.st12{fill:#49652F;}
	.st13{fill:#648140;}
	.st14{fill:#7BA848;}
	.st15{fill:#0086FF;}
	.st16{fill:#93EAFF;}
</style>
<path id="XMLID_207_" class="st0" d="M100.6,27.9c2.7,0,4.9-1.1,6.5-3.2l3.5,3.6c-2.8,3.1-6,4.7-9.8,4.7c-3.7,0-6.8-1.2-9.3-3.6  c-2.4-2.4-3.6-5.4-3.6-9c0-3.6,1.2-6.6,3.7-9s5.5-3.6,9.1-3.6c4,0,7.3,1.5,10,4.6l-3.4,3.8c-1.7-2.1-3.9-3.2-6.4-3.2  c-2,0-3.8,0.7-5.2,2c-1.5,1.3-2.2,3.1-2.2,5.4s0.7,4.1,2.1,5.4C96.9,27.3,98.5,27.9,100.6,27.9z"/>
<path id="XMLID_205_" class="st0" d="M114.8,32.8V8.4h5.4v19.5h10.4v4.8h-15.8V32.8z"/>
<path id="XMLID_157_" class="st0" d="M154.4,29.4c-2.5,2.4-5.5,3.6-9.1,3.6s-6.6-1.2-9.1-3.6c-2.5-2.4-3.7-5.4-3.7-9  c0-3.6,1.2-6.6,3.7-9s5.5-3.6,9.1-3.6s6.6,1.2,9.1,3.6s3.7,5.4,3.7,9C158.1,24,156.8,27,154.4,29.4z M152.6,20.4  c0-2.2-0.7-4-2.1-5.6c-1.4-1.5-3.1-2.3-5.1-2.3s-3.7,0.8-5.1,2.3c-1.4,1.5-2.1,3.4-2.1,5.6s0.7,4,2.1,5.5c1.4,1.5,3.1,2.3,5.1,2.3  s3.7-0.8,5.1-2.3C151.8,24.5,152.6,22.6,152.6,20.4z"/>
<path id="XMLID_155_" class="st0" d="M169.1,26.5c0.9,1.1,2.1,1.7,3.7,1.7c1.5,0,2.7-0.6,3.6-1.7c0.9-1.1,1.3-2.7,1.3-4.6V8.4h5.4  V22c0,3.5-1,6.2-2.9,8.1c-2,1.9-4.4,2.8-7.5,2.8c-3,0-5.5-1-7.5-2.9c-2-1.9-2.9-4.6-2.9-8.1V8.4h5.4v13.4  C167.8,23.8,168.2,25.3,169.1,26.5z"/>
<path id="XMLID_151_" class="st0" d="M207.4,11.6c2.3,2.1,3.5,5.1,3.5,8.9s-1.1,6.8-3.4,9s-5.7,3.3-10.4,3.3h-8.3V8.4h8.6  C201.8,8.4,205.2,9.5,207.4,11.6L207.4,11.6z M203.4,26.1c1.3-1.3,2-3.1,2-5.5c0-2.4-0.7-4.2-2-5.5s-3.4-1.9-6.1-1.9h-3V28h3.4  C200.2,27.9,202.1,27.3,203.4,26.1L203.4,26.1z"/>
<path id="XMLID_103_" class="st0" d="M241.8,8.4h5.4v24.3h-5.4l-11.6-15.3v15.3h-5.4V8.4h5.1l11.9,15.7L241.8,8.4L241.8,8.4z"/>
<path id="XMLID_100_" class="st0" d="M270.6,32.8l-2.3-5.3h-10.2l-2.3,5.3h-5.8l10.6-24.4h5.3l10.5,24.3h-5.8V32.8z M263.2,15.7  l-3.1,7.1h6.1L263.2,15.7z"/>
<path id="XMLID_98_" class="st0" d="M287.8,13.1v19.6h-5.4V13.1h-6.9V8.4h19.2v4.7H287.8z"/>
<path id="XMLID_96_" class="st0" d="M298.6,8.4h5.4v24.3h-5.4V8.4z"/>
<path id="XMLID_94_" class="st0" d="M319,23.9l6.2-15.5h5.9l-9.8,24.3h-4.6l-9.8-24.3h5.9L319,23.9z"/>
<path id="XMLID_12_" class="st0" d="M351.5,8.4v4.8h-12.1v5h10.9v4.6h-10.9v5h12.5v4.8H334V8.4H351.5z"/>
<path class="st1" d="M87.8,72.3l2.4-2.8c3.5,3.2,6.9,4.8,11.7,4.8c4.6,0,7.6-2.4,7.6-5.8v-0.1c0-3.2-1.7-5-8.8-6.5  c-7.8-1.7-11.4-4.2-11.4-9.8V52c0-5.3,4.7-9.3,11.2-9.3c5,0,8.5,1.4,12,4.2l-2.2,3c-3.2-2.6-6.3-3.7-9.8-3.7c-4.4,0-7.2,2.4-7.2,5.5  v0.1c0,3.2,1.7,5,9.2,6.6c7.6,1.7,11.1,4.4,11.1,9.6v0.1c0,5.8-4.9,9.6-11.6,9.6C96.3,77.7,91.9,75.9,87.8,72.3z M135.4,43h3.6  l15.5,34.2h-4.1l-4-9h-18.5l-4,9H120L135.4,43z M144.9,64.8l-7.7-17.4l-7.8,17.3h15.5L144.9,64.8z M163.7,43.2h3.6l21.4,27.3V43.2  h3.7v34h-3.1l-22-27.9v27.9h-3.7L163.7,43.2L163.7,43.2z M204.5,43.2h11.8c10.7,0,18.1,7.3,18.1,16.9v0.1c0,9.6-7.4,17-18.1,17  h-11.8V43.2z M216.3,73.7c8.6,0,14.1-5.8,14.1-13.4v-0.1c0-7.5-5.5-13.5-14.1-13.5h-8v26.9L216.3,73.7L216.3,73.7z M244.9,43.2h14.5  c3.9,0,6.9,1.1,8.9,3c1.4,1.5,2.2,3.3,2.2,5.4v0.1c0,4.4-2.7,6.7-5.4,7.9c4,1.2,7.3,3.5,7.3,8.2v0.1c0,5.8-4.9,9.3-12.3,9.3h-15.1  v-34H244.9z M258.8,58.4c4.6,0,7.8-2.1,7.8-6.1v-0.1c0-3.4-2.7-5.5-7.5-5.5h-10.3v11.7H258.8L258.8,58.4z M260.1,73.8  c5.1,0,8.4-2.3,8.4-6.1v-0.1c0-3.7-3.1-5.8-9-5.8h-10.7v12C248.8,73.8,260.1,73.8,260.1,73.8z M280.9,60.3c0-9.5,7-17.7,17.4-17.7  c10.3,0,17.3,8.1,17.3,17.5v0.1c0,9.4-7,17.6-17.4,17.6S280.9,69.7,280.9,60.3z M311.6,60.3c0-7.8-5.6-14.1-13.4-14.1  S285,52.4,285,60.1v0.1c0,7.7,5.6,14,13.4,14C306.1,74.3,311.6,68,311.6,60.3z M334.2,59.9l-12.6-16.7h4.5l10.4,13.9l10.3-13.9h4.5  l-12.6,16.6l13.1,17.4h-4.6l-10.9-14.6l-10.9,14.6H321C321,77.2,334.2,59.9,334.2,59.9z"/>
<path class="st2" d="M18.8,68.6c-0.1,0.1-0.2,0.2-0.3,0.2h15c0-0.1,0-0.1,0.1-0.2H18.8z M50.5,68.6c0,0.1-0.1,0.1-0.1,0.2H55  l0.1,0.1h13.6v-0.3C68.7,68.6,50.5,68.6,50.5,68.6z M30.9,17.5l-13.7-0.1V31l0.1,0.1l-0.1,9v14.8c1.8-1.5,3.5-3.3,5.4-4.8  c2.8-2.4,6-3.5,9.5-3.1l4.3,1.8c1.1-1.6,2.8-2.3,4.8-2.3c1.6,0,3.3,0.2,4.9,0.2c0.2-0.6,0.4-1.1,0.5-1.7c0.5-2.9,1.6-5.5,2.5-8.2  c1.6-5.1,3-10.3,4.9-15.2c0.1-0.9,1-1.1,1.5-1.7h2.5l0.7,0.7c1,0.8,1.7,1.7,1.1,3.1l-8.7,22.8c0.2,1.1,1.1,0.7,1.7,0.7  c2.8,0.1,3.4,0.8,3,3.5c-0.1,0.9,0,1.9,0,2.8c1.5-0.6,2.9-1.2,4.5-1.6c3-0.7,5.7,0.2,8.1,2l0.1-7.9V17.4H40L30.9,17.5z"/>
<path class="st3" d="M35.9,60.6C36,60.6,36,60.6,35.9,60.6C36,60.6,36,60.6,35.9,60.6z M60.5,52c-1.5,0.4-3,0.9-4.5,1.6  c0,0.5-0.1,1-0.3,1.5c-1,2.6-2.7,4.9-3.9,7.4c-0.3,0.7-0.7,1.8-1.8,1.5c-0.1,0-0.2,0-0.3-0.1c-1.7,0.1-3.5,0.2-4.9-1.1  c-0.5-0.5-1.2-0.2-1.8-0.3c-1.7,0.2-3.3,0.3-5,0.7c-1.4-0.1-2.9,1-4.2,1.1c-0.9,0.5-3.1,1-4.1-0.2h-0.1c0,0-0.1,0-0.1-0.1l0.3-0.5  c1.5-3.9,4.5-10.2,6.2-13.7c0.1-0.3,0.3-0.6,0.5-0.8l-4.3-1.8c-3.5-0.5-6.7,0.7-9.5,3.1c-1.8,1.5-3.5,3.3-5.4,4.8v13.8h1.2  c0.1-0.1-0.4,0.5-0.3,0.4c4.9,0,9.4-0.1,14.3-0.1c0,0.1,1-0.4,1-0.3h17c0-0.1-0.4,0.7-0.3,0.6c5.8,0,12.1,0.2,17.9,0.2  c0.3,0,0.8-0.3,1.1-0.3l-0.5-14.2l-0.1-0.1V54C66.2,52.2,63.5,51.3,60.5,52z"/>
<path class="st4" d="M56.7,23.7C56.7,23.8,56.7,23.8,56.7,23.7c0.3-0.4,0.5-0.9,0.7-1.3c0.2-1.2-0.6-1.9-1.4-2.5h-0.4  c-0.5,0.6-1.4,0.8-1.5,1.7l0.2,0.4C56.5,21.4,56.5,21.5,56.7,23.7z"/>
<path class="st5" d="M57.4,22.4l0.4,0.4c0.9-0.4-0.1-1.8,1-2.1L58.1,20H56C56.8,20.5,57.6,21.2,57.4,22.4z"/>
<path class="st6" d="M47.1,44.9c2.1,0.4,2.3-1.2,2.8-2.5c2.7-6.1,5.1-12.2,6.8-18.6v-0.1c-0.1-2.2-0.3-2.3-2.4-1.7  c0,0-0.1-0.3-0.2-0.4c-1.9,5-3.3,10.2-4.9,15.2c-0.9,2.7-2,5.4-2.5,8.2C46.8,45,46.9,44.9,47.1,44.9z"/>
<path class="st7" d="M29.4,64.1C29.5,64.1,29.5,64.1,29.4,64.1C29.5,64.1,29.5,64.1,29.4,64.1C29.4,64,29.4,64.1,29.4,64.1z   M29.7,63.4l3.8-6.7c1.1-2.3,2.1-4.6,3.3-6.7c0.7-1,1.6-1.9,2.9-2.1c0.2-0.1,0.4-0.1,0.6-0.2c2.1-0.5,4.1,0,6.2,0.2  c2.3,0.1,4.7,0.2,7,0.3c1.4,0.1,2,1.1,1.5,2.4l-0.3,0.6c-0.9,2.1-1.4,3.1-3.1,3.1c1.3,0.3,1.4,1.1,0.7,2.7s-1.6,3.3-2.2,5  c-0.2,0.6-0.4,1.1-0.4,1.7c0.1,0,0.2,0.1,0.3,0.1c1-3.3,2.8-6.1,4.3-9.6c0.8-1.3,0.8-1.7,1.5-2.5v3.2c0.2-0.5,0.3-1,0.3-1.5  c0-0.9-0.2-1.9,0-2.8c0.4-2.7-0.2-3.4-3-3.5c-0.6,0-1.5,0.4-1.7-0.7c-0.4,0.4-0.7,1.1-1.3,0.3c-1.2,0.3-2.5,0.1-3.7-0.1  c-1.6-0.1-3.3-0.3-4.9-0.2c-2,0-3.7,0.7-4.8,2.3c-0.2,0.3-0.4,0.5-0.5,0.8C34.2,53.2,31.2,59.5,29.7,63.4z"/>
<path class="st8" d="M50,46.9c0.9-3.2,2.4-6.2,3.6-9.3c1.1-3.1,2.4-6.1,3.2-9.2c0.5-1.9,1.3-3.6,1.1-5.6l-0.4-0.4  c-0.2,0.5-0.4,0.9-0.7,1.4c-1.8,6.4-4.2,12.6-6.9,18.6c-0.6,1.3-0.8,2.9-2.8,2.5c-0.1,0-0.2,0.2-0.2,0.2c-0.2,0.6-0.4,1.1-0.5,1.7  C47.4,46.9,48.6,47.2,50,46.9z"/>
<path class="st9" d="M35.9,60.6c-0.1-0.1-0.1-0.2-0.2-0.3l-2.3-3.5v-0.1l-3.6,6.7l-0.3,0.5c0,0,0.1,0,0.1,0.1c1,1.1,3.2,0.7,4.1,0.2  l2-3.2C35.8,60.9,35.9,60.8,35.9,60.6z"/>
<path class="st10" d="M57.8,22.8c0.3,2-0.6,3.8-1.1,5.6c-0.8,3.2-2.1,6.2-3.2,9.2c-1.1,3.1-2.6,6.1-3.6,9.3c0.7,0.8,0.9,0,1.3-0.3  l8.7-22.8c0.5-1.4-0.1-2.3-1.1-3.1C57.6,21,58.7,22.4,57.8,22.8z"/>
<path class="st11" d="M55.7,51.9c-0.7,0.8-0.8,1.2-1.5,2.5c-1.5,3.4-3.3,6.2-4.3,9.6H50c1.1,0.3,1.5-0.7,1.8-1.5  c1.2-2.5,2.9-4.8,3.9-7.4C55.7,55.1,55.7,51.9,55.7,51.9z"/>
<path class="st6" d="M52.2,57.2c0.8-1.7,0.6-2.5-0.7-2.7c-0.3,0-0.6,0-0.9-0.1c-2.8-0.1-5.5-0.3-8.3-0.4c-0.8,0-1.6-0.1-2,0.7  c1.2,2.5,2.4,4.9,2.5,7.8c0.6,0.1,1.3-0.1,1.8,0.3c1.4,1.4,3.2,1.2,4.9,1.1c0-0.6,0.2-1.1,0.4-1.7C50.7,60.5,51.5,58.9,52.2,57.2z"/>
<path class="st12" d="M38.2,56.9c0.9-1,1.3-1.5,2.1-2.2c0.5-0.8,1.3-0.7,2-0.7c2.8,0.1,5.5,0.3,8.3,0.4c0.3,0.1,0.6,0.1,0.9,0.1  c1.7,0,2.2-1,3.1-3.1l0.3-0.6c0.5-1.3-0.1-2.3-1.5-2.4c-2.3-0.2-4.7-0.2-7-0.3c-2.1-0.2-4.1-0.7-6.2-0.2c-0.2,0-0.4,0.1-0.6,0.2  c-1.3,0.2-2.1,1.1-2.9,2.1C38.6,52,39.7,54.2,38.2,56.9z"/>
<path class="st13" d="M35.8,60.4c0,0.1,0.1,0.2,0.2,0.2c0.9-1.3,1.4-2.3,2.3-3.6v-0.2c1.5-2.7,0.4-4.9-1.5-6.8  c-1.2,2.1-2.2,4.4-3.3,6.7v0.1L35.8,60.4z"/>
<path class="st14" d="M40.4,54.7c-0.8,0.7-1.2,1.2-2,2.3l-0.1,0.1c-0.9,1.2-1.5,2.3-2.3,3.6c-0.1,0.1-0.2,0.2-0.3,0.4l-2,3.2  c1.3-0.1,2.8-1.2,4.2-1.1c1.6-0.4,3.3-0.5,5-0.7C42.8,59.6,41.5,57.1,40.4,54.7z"/>
<path class="st15" d="M30.9,68.8H17.2V55.1H6.9v24h24V68.8z M68.5,55.1L68.5,55.1l0.1,13.6l-13.7,0.1v10.3h24v-24L68.5,55.1z   M17.3,31.1l-0.1-13.6h13.7V7.1h-24v24H17.3z"/>
<path class="st15" d="M55,7.1v10.3h13.7v13.7H79v-24L55,7.1z"/>
<path class="st16" d="M30.9,17.5l9-0.1h15V7.1h-24V17.5z M55,68.8h-24v10.3h24V68.8z M68.7,31.1v15L68.6,54v1.1H79v-24H68.7z   M17.2,55.1v-15l0.1-9H6.9v24H17.2z"/>
</svg>